<svg width="20" height="20" viewBox="0 0 20 20" fill="none" xmlns="http://www.w3.org/2000/svg">
<path d="M12.6773 5.50471C12.6773 4.50055 13.4914 3.68652 14.4955 3.68652C15.4997 3.68652 16.3137 4.50055 16.3137 5.50471C16.3137 6.50886 15.4997 7.32289 14.4955 7.32289C13.4914 7.32289 12.6773 6.50886 12.6773 5.50471Z" fill="#27272F"/>
<path d="M14.4955 12.6292C13.4914 12.6292 12.6773 13.4432 12.6773 14.4474C12.6773 15.4515 13.4914 16.2655 14.4955 16.2655C15.4997 16.2655 16.3137 15.4515 16.3137 14.4474C16.3137 13.4432 15.4997 12.6292 14.4955 12.6292Z" fill="#27272F"/>
<path d="M3.68652 14.4474C3.68652 13.4432 4.50055 12.6292 5.50471 12.6292C6.50886 12.6292 7.32289 13.4432 7.32289 14.4474C7.32289 15.4515 6.50886 16.2655 5.50471 16.2655C4.50055 16.2655 3.68652 15.4515 3.68652 14.4474Z" fill="#27272F"/>
<path d="M5.50471 3.68652C4.50055 3.68652 3.68652 4.50055 3.68652 5.50471C3.68652 6.50886 4.50055 7.32289 5.50471 7.32289C6.50886 7.32289 7.32289 6.50886 7.32289 5.50471C7.32289 4.50055 6.50886 3.68652 5.50471 3.68652Z" fill="#27272F"/>
<path d="M8.18182 10C8.18182 8.99585 8.99585 8.18182 10 8.18182C11.0042 8.18182 11.8182 8.99585 11.8182 10C11.8182 11.0042 11.0042 11.8182 10 11.8182C8.99585 11.8182 8.18182 11.0042 8.18182 10Z" fill="#27272F"/>
<path fill-rule="evenodd" clip-rule="evenodd" d="M0 2.72727C0 1.22104 1.22104 0 2.72727 0H17.2727C18.779 0 20 1.22104 20 2.72727V17.2727C20 18.779 18.779 20 17.2727 20H2.72727C1.22104 20 0 18.779 0 17.2727V2.72727ZM2.72727 1.81818H17.2727C17.7748 1.81818 18.1818 2.2252 18.1818 2.72727V17.2727C18.1818 17.7748 17.7748 18.1818 17.2727 18.1818H2.72727C2.2252 18.1818 1.81818 17.7748 1.81818 17.2727V2.72727C1.81818 2.2252 2.2252 1.81818 2.72727 1.81818Z" fill="#27272F"/>
</svg>
