<svg width="22" height="20" viewBox="0 0 22 20" fill="none" xmlns="http://www.w3.org/2000/svg">
<path fill-rule="evenodd" clip-rule="evenodd" d="M3.70834 13.4397C4.92663 14.2928 6.3222 14.7038 7.70461 14.7063C8.17977 16.0045 9.04328 17.1753 10.2616 18.0284C13.4284 20.2458 17.7932 19.4762 20.0107 16.3093C22.2281 13.1425 21.4585 8.77768 18.2916 6.56024C17.0734 5.70719 15.6778 5.29621 14.2954 5.29371C13.8202 3.99552 12.9567 2.82467 11.7384 1.97161C8.57158 -0.245829 4.20676 0.523807 1.98931 3.69064C-0.228129 6.85748 0.541507 11.2223 3.70834 13.4397ZM4.8555 11.8014C5.6016 12.3239 6.44081 12.6142 7.28736 12.6875C7.20112 11.1725 7.60464 9.61873 8.54254 8.27927C9.48044 6.9398 10.8025 6.0292 12.2556 5.59209C11.8972 4.82166 11.3374 4.13235 10.5913 3.60992C8.32924 2.02603 5.21151 2.57577 3.62762 4.8378C2.04373 7.09982 2.59347 10.2176 4.8555 11.8014ZM17.1445 8.19854C16.3984 7.67611 15.5592 7.38581 14.7126 7.31251C14.7989 8.82747 14.3953 10.3813 13.4574 11.7207C12.5195 13.0602 11.1975 13.9708 9.74438 14.4079C10.1028 15.1783 10.6626 15.8676 11.4087 16.3901C13.6707 17.9739 16.7885 17.4242 18.3724 15.1622C19.9562 12.9002 19.4065 9.78243 17.1445 8.19854Z" fill="#27272F"/>
</svg>
