<svg width="20" height="20" viewBox="0 0 20 20" fill="none" xmlns="http://www.w3.org/2000/svg">
<path fill-rule="evenodd" clip-rule="evenodd" d="M15.0322 0.87868C13.9671 -0.292893 12.2403 -0.292893 11.1753 0.87868L9.8896 2.29289C9.83481 2.35317 9.78283 2.41538 9.73367 2.47931C9.68452 2.41539 9.63255 2.3532 9.57776 2.29293L8.29211 0.878715C7.22704 -0.292858 5.50023 -0.292858 4.43516 0.878715C3.3701 2.05029 3.3701 3.94978 4.43516 5.12136L5.23393 6H0V12H1.81818V20H18.1818V12H20V6H14.2334L15.0322 5.12132C16.0973 3.94975 16.0973 2.05025 15.0322 0.87868ZM12.4609 5.12132L13.7465 3.70711C14.1016 3.31658 14.1016 2.68342 13.7465 2.29289C13.3915 1.90237 12.8159 1.90237 12.4609 2.29289L11.1753 3.70711C10.8202 4.09763 10.8202 4.7308 11.1753 5.12132C11.5303 5.51184 12.1059 5.51184 12.4609 5.12132ZM8.29211 3.70714L7.00646 2.29293C6.65144 1.9024 6.07583 1.9024 5.72081 2.29293C5.36579 2.68345 5.36579 3.31662 5.72081 3.70714L7.00646 5.12136C7.36148 5.51188 7.93709 5.51188 8.29211 5.12136C8.64713 4.73083 8.64713 4.09767 8.29211 3.70714ZM18.1818 8V10H1.81818V8H18.1818ZM10.8334 12H16.3636V18H10.8334V12ZM9.16674 12V18H3.63636V12H9.16674Z" fill="#27272F"/>
</svg>
