<svg width="20" height="20" viewBox="0 0 20 20" fill="none" xmlns="http://www.w3.org/2000/svg">
<path fill-rule="evenodd" clip-rule="evenodd" d="M14.9839 2.00939H12.811C12.4023 0.839689 11.2829 0 9.96607 0C8.64925 0 7.52988 0.839689 7.12111 2.00939H4.94824C3.28548 2.00939 1.93755 3.34822 1.93755 4.99976V7.18889C0.804691 7.61827 0 8.70765 0 9.98369C0 11.2597 0.804691 12.3491 1.93755 12.7785V14.9676C1.93755 16.6192 3.28548 17.958 4.94824 17.958H7.10992C7.50915 19.1447 8.63704 20 9.96607 20C11.2951 20 12.423 19.1447 12.8222 17.958H14.9839C16.6467 17.958 17.9946 16.6192 17.9946 14.9676V12.8033C19.163 12.3923 20 11.2851 20 9.98369C20 8.68231 19.163 7.57509 17.9946 7.16409V4.99976C17.9946 3.34822 16.6467 2.00939 14.9839 2.00939ZM3.94468 12.8274V14.9676C3.94468 15.5181 4.39399 15.9644 4.94824 15.9644H7.1444C7.57115 14.8283 8.67348 14.0193 9.96607 14.0193C11.2586 14.0193 12.361 14.8283 12.7877 15.9644H14.9839C15.5381 15.9644 15.9875 15.5181 15.9875 14.9676V12.8045C14.8172 12.3945 13.9786 11.2864 13.9786 9.98369C13.9786 8.68103 14.8172 7.57292 15.9875 7.16289V4.99976C15.9875 4.44925 15.5381 4.00297 14.9839 4.00297H12.7998C12.382 5.15615 11.271 5.98073 9.96607 5.98073C8.66115 5.98073 7.55013 5.15615 7.13237 4.00297H4.94824C4.39399 4.00297 3.94468 4.44925 3.94468 4.99976V7.14001C5.15023 7.53038 6.02139 8.65599 6.02139 9.98369C6.02139 11.3114 5.15023 12.437 3.94468 12.8274Z" fill="#27272F"/>
</svg>
