<svg width="20" height="20" viewBox="0 0 20 20" fill="none" xmlns="http://www.w3.org/2000/svg">
<path d="M7 12C7.55228 12 8 11.5523 8 11C8 10.4477 7.55228 10 7 10C6.44771 10 6 10.4477 6 11C6 11.5523 6.44771 12 7 12Z" fill="#27272F"/>
<path d="M14 11C14 11.5523 13.5523 12 13 12C12.4477 12 12 11.5523 12 11C12 10.4477 12.4477 10 13 10C13.5523 10 14 10.4477 14 11Z" fill="#27272F"/>
<path fill-rule="evenodd" clip-rule="evenodd" d="M10 20C15.5228 20 20 15.5228 20 10C20 4.47715 15.5228 0 10 0C4.47715 0 0 4.47715 0 10C0 15.5228 4.47715 20 10 20ZM10 18C14.4183 18 18 14.4183 18 10C18 9.16374 17.8717 8.35744 17.6337 7.59973C16.7991 7.82556 15.9212 7.94604 15.0152 7.94604C11.2921 7.94604 8.04419 5.91139 6.32277 2.89334C3.75469 4.22486 2 6.90751 2 10C2 14.4183 5.58172 18 10 18Z" fill="#27272F"/>
</svg>
