<svg width="16" height="18" viewBox="0 0 16 18" fill="none" xmlns="http://www.w3.org/2000/svg">
<path d="M8.99998 1.00881C9.00019 0.45653 8.55265 0.00863925 8.00037 0.00842293C7.44808 0.00820698 7.00019 0.455747 6.99997 1.00803L6.99684 9.01148C6.99663 9.56376 7.44417 10.0117 7.99645 10.0119C8.54874 10.0121 8.99663 9.56455 8.99684 9.01226L8.99998 1.00881Z" fill="#27272F"/>
<path d="M0 9.99156C0 7.78245 0.895405 5.78247 2.34308 4.33476L3.7573 5.74898C2.67155 6.83476 2 8.33473 2 9.99156C2 13.3053 4.68629 15.9916 8 15.9916C11.3137 15.9916 14 13.3053 14 9.99156C14 8.3347 13.3284 6.83469 12.2426 5.74891L13.6568 4.33469C15.1046 5.78241 16 7.78241 16 9.99156C16 14.4098 12.4183 17.9916 8 17.9916C3.58172 17.9916 0 14.4098 0 9.99156Z" fill="#27272F"/>
</svg>
