<svg width="20" height="17" viewBox="0 0 20 17" fill="none" xmlns="http://www.w3.org/2000/svg">
<path fill-rule="evenodd" clip-rule="evenodd" d="M17.2727 2H12.7273C11.7231 2 10.9091 2.89543 10.9091 4V13C10.9091 13.5523 11.3161 14 11.8182 14H17.2727C17.7748 14 18.1818 13.5523 18.1818 13V3C18.1818 2.44772 17.7748 2 17.2727 2ZM8.18182 16C8.50058 16 8.80656 15.9398 9.09091 15.8293V16C9.09091 16.5523 9.49792 17 10 17C10.5021 17 10.9091 16.5523 10.9091 16V15.8293C11.1934 15.9398 11.4994 16 11.8182 16H17.2727C18.779 16 20 14.6569 20 13V3C20 1.34315 18.779 0 17.2727 0H12.7273C11.6412 0 10.6663 0.523755 10 1.35418C9.33369 0.523755 8.35881 0 7.27273 0H2.72727C1.22104 0 0 1.34315 0 3V13C0 14.6569 1.22104 16 2.72727 16H8.18182ZM9.09091 4V13C9.09091 13.5523 8.6839 14 8.18182 14H2.72727C2.22519 14 1.81818 13.5523 1.81818 13V3C1.81818 2.44772 2.22519 2 2.72727 2H7.27273C8.27688 2 9.09091 2.89543 9.09091 4ZM16.3636 4H12.7273V6H16.3636V4ZM7.27273 4H3.63636V6H7.27273V4ZM3.63636 7H7.27273V9H3.63636V7ZM16.3636 7H12.7273V9H16.3636V7ZM3.63636 10H7.27273V12H3.63636V10ZM16.3636 10H12.7273V12H16.3636V10Z" fill="#27272F"/>
</svg>
